<svg width="18" height="18" viewBox="0 0 18 18" xmlns="http://www.w3.org/2000/svg">
    <path d="M9 1.5a1.635 1.635 0 0 1 1.572 2.087c.03.013.06.03.088.052l3.476 2.705a.41.41 0 0 1 .058.055h1.171c.623 0 1.135.514 1.135 1.138v7.91a1.135 1.135 0 0 1-1.135 1.137H2.633c-.31 0-.593-.128-.799-.333a1.132 1.132 0 0 1-.333-.802L1.5 7.537c0-.626.51-1.138 1.135-1.138h1.171a.41.41 0 0 1 .058-.055L7.339 3.64a.388.388 0 0 1 .089-.052A1.642 1.642 0 0 1 9 1.5zM4.246 12.331a.288.288 0 0 1 0-.576h9.508a.288.288 0 0 1 0 .576H4.246zm1.018-1.87-.46-.669c-.016-.022-.026-.07-.03-.144h-.012v.814H4.16V8.577h.566l.46.67c.016.022.026.07.03.144h.012v-.814h.602v1.885h-.566zm.89-.94c0-.344.064-.594.192-.752.128-.158.36-.237.695-.237.335 0 .566.08.695.237.128.158.192.408.192.752 0 .17-.013.315-.04.431a.786.786 0 0 1-.14.305.566.566 0 0 1-.274.19c-.116.04-.26.06-.433.06s-.317-.02-.433-.06a.565.565 0 0 1-.274-.19.78.78 0 0 1-.14-.305 1.928 1.928 0 0 1-.04-.43zm.646-.313v.783h.25c.082 0 .142-.01.179-.028.037-.02.055-.063.055-.131v-.784h-.252a.4.4 0 0 0-.176.029c-.037.019-.056.062-.056.13zm2.79-.148h-.436v1.402h-.602V9.06h-.436v-.483H9.59v.483zm.279 1.402V8.577h.601v1.885H9.87zm2.263-.54.045.507a1.251 1.251 0 0 1-.475.078c-.19 0-.343-.02-.458-.06a.565.565 0 0 1-.273-.19.77.77 0 0 1-.138-.305 2.03 2.03 0 0 1-.04-.43c0-.172.014-.316.04-.434a.77.77 0 0 1 .138-.305c.128-.167.364-.25.707-.25.076 0 .166.007.27.022.103.015.18.034.23.056l-.09.461a1.695 1.695 0 0 0-.359-.042.582.582 0 0 0-.225.03c-.043.02-.064.06-.064.12v.79a1.327 1.327 0 0 0 .692-.048zm1.572-.172h-.601v.23h.737v.482H12.5V8.577h1.324l-.075.483h-.646v.253h.601v.437zm-8.031 4.498a.288.288 0 0 1 0-.577h6.654a.288.288 0 0 1 0 .577H5.673zm7.264-7.849L10.19 4.261l-.034.035a1.628 1.628 0 0 1-2.312 0l-.034-.035-2.748 2.138h7.875zM9 2.445a.689.689 0 0 1 .691.693.691.691 0 1 1-1.18-.49A.689.689 0 0 1 9 2.445z" fill="#FFF" fill-rule="evenodd"/>
</svg>
