<?xml version="1.0" encoding="UTF-8"?>
<svg width="18px" height="18px" viewBox="0 0 18 18" version="1.1" xmlns="http://www.w3.org/2000/svg" xmlns:xlink="http://www.w3.org/1999/xlink">
    <title>Netwerk</title>
    <g id="Symbols" stroke="none" stroke-width="1" fill="none" fill-rule="evenodd">
        <g id="Netwerk" fill-rule="nonzero">
            <g id="content">
                <g id="Basic/Circle">
                    <rect id="Path" x="0" y="0" width="18" height="18"></rect>
                    <path d="M16.5,8.25 L16.5,14.25 C16.5,15.0784271 15.8284271,15.75 15,15.75 L3,15.75 C2.17157288,15.75 1.5,15.0784271 1.5,14.25 L1.5,8.25 L2.625,8.25 L2.625,14.25 C2.625,14.4571068 2.79289322,14.625 3,14.625 L15,14.625 C15.2071068,14.625 15.375,14.4571068 15.375,14.25 L15.375,8.25 L16.5,8.25 Z" id="Combined-Shape" fill="#FFFFFF"></path>
                    <path d="M10.5,2.25 C11.3284271,2.25 12,2.92157288 12,3.75 L12,4.5 L10.875,4.5 L10.875,3.75 C10.875,3.54289322 10.7071068,3.375 10.5,3.375 L7.5,3.375 C7.29289322,3.375 7.125,3.54289322 7.125,3.75 L7.125,4.5 L6,4.5 L6,3.75 C6,2.92157288 6.67157288,2.25 7.5,2.25 L10.5,2.25 Z" id="Combined-Shape" fill="#FFFFFF"></path>
                    <path d="M15,4.5 C15.8284271,4.5 16.5,5.17157288 16.5,6 L16.5,8.25 C16.5,9.07842712 15.8284271,9.75 15,9.75 L11.2122119,9.7513831 C11.2369902,9.62978821 11.25,9.5039134 11.25,9.375 C11.25,9.10825392 11.194298,8.85451774 11.0938912,8.62478862 L15,8.625 C15.2071068,8.625 15.375,8.45710678 15.375,8.25 L15.375,6 C15.375,5.79289322 15.2071068,5.625 15,5.625 L9,5.625 L9,4.5 L15,4.5 Z" id="Combined-Shape" fill="#FFFFFF"></path>
                    <path d="M9,4.5 L9,5.625 L3,5.625 C2.79289322,5.625 2.625,5.79289322 2.625,6 L2.625,8.25 C2.625,8.45710678 2.79289322,8.625 3,8.625 L6.90610876,8.62478862 C6.80570198,8.85451774 6.75,9.10825392 6.75,9.375 C6.75,9.5039134 6.7630098,9.62978821 6.78778809,9.7513831 L3,9.75 C2.17157288,9.75 1.5,9.07842712 1.5,8.25 L1.5,6 C1.5,5.17157288 2.17157288,4.5 3,4.5 L9,4.5 Z" id="Combined-Shape" fill="#FFFFFF"></path>
                    <path d="M9.75,7.5 C10.5784271,7.5 11.25,8.17157288 11.25,9 L11.25,9.75 C11.25,10.5784271 10.5784271,11.25 9.75,11.25 L8.25,11.25 C7.42157288,11.25 6.75,10.5784271 6.75,9.75 L6.75,9 C6.75,8.17157288 7.42157288,7.5 8.25,7.5 L9.75,7.5 Z M9.75,8.625 L8.25,8.625 C8.04289322,8.625 7.875,8.79289322 7.875,9 L7.875,9.75 C7.875,9.95710678 8.04289322,10.125 8.25,10.125 L9.75,10.125 C9.95710678,10.125 10.125,9.95710678 10.125,9.75 L10.125,9 C10.125,8.79289322 9.95710678,8.625 9.75,8.625 Z" id="Rectangle-Copy-3" fill="#FFFFFF"></path>
                </g>
            </g>
        </g>
    </g>
</svg>