<?xml version="1.0" encoding="UTF-8"?>
<svg width="24px" height="24px" viewBox="0 0 24 24" version="1.1" xmlns="http://www.w3.org/2000/svg" xmlns:xlink="http://www.w3.org/1999/xlink">
    <title>Filled/partners</title>
    <g id="Filled/partners" stroke="none" stroke-width="1" fill="none" fill-rule="evenodd">
        <path d="M16.5,2 C18.9852814,2 21,4.01471863 21,6.5 C21,8.20900705 20.0473114,9.69550174 18.6440408,10.4573774 C20.4373176,11.2553027 21.7440678,13.0271265 21.9664228,15.1427661 L22,15.1428571 L22,19 L18,19 L18,22 L7,22 L7,19 L2,19 L2,15.1428571 L2.03357716,15.1427661 C2.25593217,13.0271265 3.56268238,11.2553027 5.35617281,10.4559967 C3.95268862,9.69550174 3,8.20900705 3,6.5 C3,4.01471863 5.01471863,2 7.5,2 C9.48183813,2 11.1644479,3.28114897 11.7648162,5.06043389 C11.9247191,5.03345499 12.088215,5.01553778 12.2540985,5.00660452 C12.8700331,3.25505307 14.5384499,2 16.5,2 Z M7.5,11.5 C5.47482093,11.5 3.753147,13.1322354 3.52536056,15.2995534 C3.52035529,15.347177 3.51315715,15.3940865 3.50387275,15.4401855 L3.5,15.452 L3.5,17.5 L7.13629614,17.4999614 C7.53059796,15.6720645 8.7476177,14.1728824 10.3561728,13.4559967 C9.59233265,13.0421006 8.96201963,12.413161 8.54614262,11.6503438 C8.21185338,11.5517903 7.86074175,11.5 7.5,11.5 Z M16.5302842,11.5001217 L16.4566455,11.6453883 C16.040824,12.4106512 15.4094611,13.0418089 14.6440408,13.4573774 C16.2524043,14.1730248 17.4694043,15.6720792 17.8637041,17.4999629 L20.5,17.5 L20.5,15.456 L20.4961273,15.4401855 L20.4746394,15.2995534 C20.2479893,13.1430468 18.5423186,11.5162977 16.5302842,11.5001217 Z M7.5,3.5 C5.84314575,3.5 4.5,4.84314575 4.5,6.5 C4.5,8.15685425 5.84314575,9.5 7.5,9.5 C7.67094528,9.5 7.83855113,9.48570222 8.00168694,9.45823727 L8,9.5 C8,7.79540588 8.94777499,6.31217647 10.3450978,5.54853893 C9.94831033,4.3581748 8.8243739,3.5 7.5,3.5 Z M16.5,3.5 C15.3122504,3.5 14.2857165,4.19024667 13.799645,5.19149345 C15.6387152,5.74460264 16.9813162,7.44303283 16.9998066,9.45784262 C18.418707,9.22065259 19.5,7.98660106 19.5,6.5 C19.5,4.84314575 18.1568542,3.5 16.5,3.5 Z" id="Combined-Shape" fill="#FFFFFF" fill-rule="nonzero"></path>
    </g>
</svg>