<?xml version="1.0" encoding="utf-8"?>
<!-- Generator: Adobe Illustrator 26.3.1, SVG Export Plug-In . SVG Version: 6.00 Build 0)  -->
<svg version="1.1" id="Layer_1" xmlns="http://www.w3.org/2000/svg" xmlns:xlink="http://www.w3.org/1999/xlink" x="0px" y="0px"
	 viewBox="0 0 30 28" style="enable-background:new 0 0 30 28;" xml:space="preserve">
<style type="text/css">
	.st0{fill-rule:evenodd;clip-rule:evenodd;fill:#212121;}
</style>
<g id="SNL-newsfeed-default-desktop" transform="translate(-1190.000000, -2385.000000)">
	<g id="card_x2F_discover_x2F_feature-copy-2" transform="translate(1156.000000, 2356.000000)">
		<g id="Group-2" transform="translate(0.000000, 4.000000)">
			<g id="Group" transform="translate(31.000000, 21.000000)">
				<g id="Featured_x2F_Two-Tone_x2F_comments" transform="translate(3.000000, 4.500000)">
					<path id="Fill-1" class="st0" d="M13.8,20.5l-7,3.6l0.5-2.6c0.1-0.5-0.2-1-0.7-1.1c-0.1,0-0.1,0-0.2,0H4.6
						c-1.5,0-2.8-1.2-2.8-2.7v0V6c0-1.5,1.2-2.7,2.8-2.7h19.3c1.5,0,2.8,1.2,2.8,2.7v11.7c0,1.5-1.2,2.7-2.8,2.7h-9.7
						C14.1,20.4,14,20.4,13.8,20.5 M23.9,1.4H4.6C2.1,1.5,0,3.5,0,6v11.7c0,2.5,2.1,4.5,4.6,4.5h0.7l-0.7,3.4
						c-0.1,0.5,0.2,1,0.7,1.1c0.1,0,0.1,0,0.2,0c0.1,0,0.3,0,0.4-0.1l8.5-4.4h9.4c2.5,0,4.6-2,4.6-4.5V6C28.5,3.5,26.5,1.5,23.9,1.4
						"/>
				</g>
			</g>
		</g>
	</g>
</g>
</svg>
