<?xml version="1.0" encoding="UTF-8"?>
<svg width="136px" height="25px" viewBox="0 0 136 25" version="1.1" xmlns="http://www.w3.org/2000/svg" xmlns:xlink="http://www.w3.org/1999/xlink">
    <title>New_Bloomberg_Logo</title>
    <g id="Brand-Asset" stroke="none" stroke-width="1" fill="none" fill-rule="evenodd">
        <g id="Subbrands" transform="translate(-658, -551)" fill="#000000" fill-rule="nonzero">
            <g id="New_Bloomberg_Logo" transform="translate(658, 551)">
                <path d="M0,0 L10.1449275,0 C12.0772947,0 13.52657,0.484035326 14.6001074,1.29076087 C15.7809984,2.25883152 16.4251208,3.6571558 16.4251208,5.37817029 C16.4251208,7.3680933 15.6199678,8.60507246 14.0096618,9.3580163 L14.0096618,9.46557971 C16.1567364,10.1647418 17.3913043,12.1008832 17.3913043,14.4134964 C17.3913043,16.6185462 16.5324745,18.3395607 15.136876,19.4151947 C13.955985,20.275702 12.4530327,20.6521739 10.4133119,20.6521739 L0,20.6521739 L0,0 Z M9.1250671,8.06725543 C10.1986044,8.06725543 11.0037574,7.4756567 11.0037574,6.23867754 C11.0037574,5.05548007 10.1986044,4.46388134 9.07139023,4.46388134 L5.58239399,4.46388134 L5.58239399,8.01347373 L9.1250671,8.01347373 L9.1250671,8.06725543 Z M9.60815888,16.0807292 C10.8427268,16.0807292 11.7552335,15.3277853 11.7552335,13.9832428 C11.7552335,12.5311368 10.7890499,11.8857563 9.60815888,11.8857563 L5.63607085,11.8857563 L5.63607085,16.1345109 L9.60815888,16.1345109 L9.60815888,16.0807292 Z" id="Shape"></path>
                <polygon id="Path" points="17.3913043 0 22.826087 0 22.826087 20.6521739 17.3913043 20.6521739"></polygon>
                <path d="M23.9130435,13.0434783 C23.9130435,8.47826087 26.9031274,5.43478261 31.5484363,5.43478261 C36.1937452,5.43478261 39.1304348,8.53073463 39.1304348,13.0434783 C39.1304348,17.6086957 36.1937452,20.6521739 31.5484363,20.6521739 C26.9031274,20.6521739 23.9130435,17.6086957 23.9130435,13.0434783 Z M33.8443936,13.0434783 C33.8443936,10.5247376 33.0434783,8.95052474 31.4416476,8.95052474 C29.8398169,8.95052474 29.092296,10.5247376 29.092296,13.0434783 C29.092296,15.5622189 29.8398169,17.1889055 31.4416476,17.1889055 C33.0434783,17.1364318 33.8443936,15.5622189 33.8443936,13.0434783 Z" id="Shape"></path>
                <path d="M39.1304348,13.0434783 C39.1304348,8.47826087 42.1310472,5.43478261 46.7927128,5.43478261 C51.4543784,5.43478261 54.3478261,8.47826087 54.3478261,13.0434783 C54.3478261,17.6086957 51.4007961,20.6521739 46.7391304,20.6521739 C42.1310472,20.6521739 39.1304348,17.6086957 39.1304348,13.0434783 Z M49.0967544,13.0434783 C49.0967544,10.5247376 48.293019,8.95052474 46.6855481,8.95052474 C45.0780772,8.95052474 44.3279241,10.5247376 44.3279241,13.0434783 C44.3279241,15.5622189 45.0780772,17.1889055 46.6855481,17.1889055 C48.293019,17.1364318 49.0967544,15.5622189 49.0967544,13.0434783 Z" id="Shape"></path>
                <path d="M55.4347826,5.86648165 L60.3298875,5.86648165 L60.3298875,8.07893925 L60.4363028,8.07893925 C61.3940407,6.35214308 62.7242323,5.43478261 64.8525388,5.43478261 C66.7148069,5.43478261 68.0982061,6.35214308 68.7899057,7.97101449 L68.8963211,7.97101449 C70.0668896,6.02836879 71.6099118,5.43478261 73.4189723,5.43478261 C76.8242627,5.43478261 78.2608696,7.97101449 78.2608696,11.3706445 L78.2608696,20.6521739 L73.152934,20.6521739 L73.152934,12.2880049 C73.152934,10.7770583 72.6740651,9.80573543 71.3970812,9.80573543 C70.1200973,9.80573543 69.4816054,10.9929078 69.4816054,12.6117792 L69.4816054,20.6521739 L64.3736698,20.6521739 L64.3736698,12.2880049 C64.3736698,10.7770583 63.8948009,9.80573543 62.617817,9.80573543 C61.3408331,9.80573543 60.7023411,10.9929078 60.7023411,12.6117792 L60.7023411,20.6521739 L55.4347826,20.6521739 C55.4347826,20.6521739 55.4347826,5.86648165 55.4347826,5.86648165 Z" id="Path"></path>
                <path d="M84.3135011,18.2874212 L84.2601068,18.2874212 L84.2601068,20.1792234 L79.3478261,20.1792234 L79.3478261,0 L84.4736842,0 L84.4736842,7.2519084 L84.5804729,7.2519084 C85.5415713,5.99070694 86.8764302,5.30755615 88.7452326,5.30755615 C92.4294432,5.30755615 94.5652174,8.56565992 94.5652174,12.927315 C94.5652174,17.8144706 92.2692601,20.6521739 88.4248665,20.6521739 C86.8230359,20.6521739 85.1678108,19.9164731 84.3135011,18.2874212 Z M89.2791762,12.8747649 C89.2791762,10.5625622 88.4248665,9.03861047 86.8764302,9.03861047 C85.2745995,9.03861047 84.3135011,10.5625622 84.3135011,12.8747649 C84.3135011,15.1869676 85.3279939,16.7109193 86.8764302,16.7109193 C88.4248665,16.7109193 89.2791762,15.2395176 89.2791762,12.8747649 Z" id="Shape"></path>
                <path d="M95.6521739,13.0173315 C95.6521739,8.52009562 98.7494481,5.43478261 103.205176,5.43478261 C105.43304,5.43478261 107.117522,6.11459734 108.421638,7.31734648 C110.160458,8.93844315 110.921192,11.4485283 110.866854,14.376961 L100.868636,14.376961 C101.085988,16.154938 101.955399,17.0962199 103.531205,17.0962199 C104.454953,17.0962199 105.270025,16.6778724 105.596054,15.7365905 L110.649502,15.7365905 C109.780091,19.0310772 107.117522,20.6521739 103.36819,20.6521739 C98.7494481,20.5998805 95.6521739,17.5668609 95.6521739,13.0173315 Z M100.868636,11.5008218 L105.650392,11.5008218 C105.541716,9.7751382 104.56363,8.88614971 103.313852,8.88614971 C101.846722,8.83385627 101.03165,9.82743165 100.868636,11.5008218 Z" id="Shape"></path>
                <path d="M115.63147,8.30496673 L115.73499,8.30496673 C116.770186,6.24709887 118.115942,5.43478261 119.824017,5.43478261 C120.238095,5.43478261 120.496894,5.48893703 120.652174,5.59724586 L120.652174,10.1462169 L120.548654,10.1462169 C117.598344,9.60467275 115.890269,11.066842 115.890269,14.4244159 L115.890269,20.6521739 L110.869565,20.6521739 L110.869565,5.75970911 L115.63147,5.75970911 L115.63147,8.30496673 Z" id="Path"></path>
                <path d="M121.996985,20.2908316 L126.793082,20.2908316 C126.999365,20.918552 127.618216,21.4939623 128.804348,21.4939623 C130.403047,21.4939623 130.970327,20.5000717 130.970327,18.9830808 L130.970327,17.9368802 L130.867185,17.9368802 C130.093621,18.8784607 129.010632,19.5584911 127.463504,19.5584911 C124.420819,19.5584911 121.73913,17.2568498 121.73913,12.758187 C121.73913,8.62569454 123.905109,5.43478261 127.205649,5.43478261 C129.113773,5.43478261 130.248334,6.21943308 131.021898,7.42256381 L131.12504,7.42256381 L131.12504,5.85326286 L135.869565,5.85326286 L135.869565,18.3030504 C135.869565,20.6046918 135.096001,22.3832329 133.90987,23.4294335 C132.672168,24.5279442 130.918756,24.9987344 128.90749,24.9987344 C125.091241,25.0510445 122.461123,23.4817435 121.996985,20.2908316 Z M131.176611,12.5489469 C131.176611,10.7704058 130.351476,9.30572495 128.90749,9.30572495 C127.515075,9.30572495 126.638369,10.5611657 126.638369,12.5489469 C126.638369,14.4844181 127.515075,15.8444789 128.90749,15.8444789 C130.299905,15.8444789 131.176611,14.432108 131.176611,12.5489469 Z" id="Shape"></path>
            </g>
        </g>
    </g>
</svg>