<?xml version="1.0" encoding="UTF-8"?>
<svg width="44px" height="44px" viewBox="0 0 44 44" version="1.1" xmlns="http://www.w3.org/2000/svg" xmlns:xlink="http://www.w3.org/1999/xlink">
    <title>Group</title>
    <g id="Page-1" stroke="none" stroke-width="1" fill="none" fill-rule="evenodd">
        <g id="Group" transform="translate(1.000000, 1.000000)">
            <circle id="Oval" stroke="#000000" stroke-width="2" cx="21" cy="21" r="21"></circle>
            <path d="M29.4250494,19.2334479 C27.5923321,19.1477518 25.9346472,18.5838433 24.3601028,17.5030899 C24.3601028,17.716103 24.3601028,17.8546255 24.3601028,17.9931481 C24.359996,20.2343748 24.3689611,22.4757082 24.357648,24.7169349 C24.3420659,27.8038109 22.3615316,30.2316909 19.3521484,30.8758528 C16.1209863,31.5676118 12.7136178,29.2882861 12.1143453,26.0341799 C11.4749434,22.5622581 13.5725573,19.4195676 17.0195215,18.6941918 C17.3046962,18.6342151 17.598089,18.5987841 17.8891337,18.585871 C18.2981118,18.5676218 18.7085841,18.581282 19.1418961,18.581282 L19.1418961,21.7823484 C18.768458,21.7823484 18.4002496,21.7727436 18.0327883,21.7840559 C16.4393531,21.8326135 15.1384569,23.2153845 15.1611897,24.8296312 C15.1837092,26.4262691 16.5058441,27.7672059 18.0807088,27.790791 C19.8961363,27.8180046 21.2021554,26.4874197 21.2041833,24.5888709 C21.208986,20.2263708 21.2057842,15.8638707 21.2057842,11.5014773 L21.2057842,11 L24.3131428,11 C24.4478324,11.5349874 24.5668331,12.0664529 24.7159308,12.5892742 C25.2717654,14.5373411 26.668716,15.5220465 28.5604534,15.9295035 C28.8543797,15.9927884 29.2837427,15.94914 29.411495,16.1272556 C29.5656089,16.3419763 29.4713689,16.7404687 29.4725429,17.0594548 C29.4749976,17.7396881 29.469768,18.4200281 29.4663528,19.1002614 C29.466246,19.124807 29.4517311,19.1493526 29.4250494,19.2334479" id="Fill-1" fill="#000000"></path>
        </g>
    </g>
</svg>