<?xml version="1.0" encoding="UTF-8"?>
<svg width="44px" height="44px" viewBox="0 0 44 44" version="1.1" xmlns="http://www.w3.org/2000/svg" xmlns:xlink="http://www.w3.org/1999/xlink">
    <title>twitter-x</title>
    <g id="Page-1" stroke="none" stroke-width="1" fill="none" fill-rule="evenodd">
        <g id="twitter-x" transform="translate(1, 1)" fill-rule="nonzero">
            <path d="M21,-1 C33.1502645,-1 43,8.8497355 43,21 C43,33.1502645 33.1502645,43 21,43 C8.8497355,43 -1,33.1502645 -1,21 C-1,8.8497355 8.8497355,-1 21,-1 Z M21,1 C9.954305,1 1,9.954305 1,21 C1,32.045695 9.954305,41 21,41 C32.045695,41 41,32.045695 41,21 C41,9.954305 32.045695,1 21,1 Z" id="Oval" fill="#000000"></path>
            <g id="layer1" transform="translate(9.2472, 10)" fill="#1D1D1B">
                <path d="M0.0571961343,0 L9.1324476,12.1342585 L0,22 L2.05551073,22 L10.0511359,13.3622003 L16.5111434,22 L23.5056389,22 L13.9195668,9.18333244 L22.4200957,0 L20.364585,0 L13.001273,7.95499615 L7.05169168,0 L0.0571961343,0 Z M3.07991322,1.51392251 L6.2931526,1.51392251 L20.4825274,20.4860775 L17.269288,20.4860775 L3.07991322,1.51392251 Z" id="path1009"></path>
            </g>
        </g>
    </g>
</svg>