<?xml version="1.0" encoding="UTF-8"?>
<svg width="44px" height="44px" viewBox="0 0 44 44" version="1.1" xmlns="http://www.w3.org/2000/svg" xmlns:xlink="http://www.w3.org/1999/xlink">
    <title>WhatsApp</title>
    <g id="✅--Sign-up-(Nadia)" stroke="none" stroke-width="1" fill="none" fill-rule="evenodd">
        <g id="WhatsApp" fill-rule="nonzero">
            <path d="M22,0 C34.1502645,0 44,9.8497355 44,22 C44,34.1502645 34.1502645,44 22,44 C9.8497355,44 0,34.1502645 0,22 C0,9.8497355 9.8497355,0 22,0 Z M22,1.83333333 C10.8622576,1.83333333 1.83333333,10.8622576 1.83333333,22 C1.83333333,33.1377424 10.8622576,42.1666667 22,42.1666667 C33.1377424,42.1666667 42.1666667,33.1377424 42.1666667,22 C42.1666667,10.8622576 33.1377424,1.83333333 22,1.83333333 Z" id="level" fill="#000014"></path>
            <g id="Group" transform="translate(9.7778, 9.7778)" fill="#000000">
                <path d="M20.7895112,3.55231472 C18.5019114,1.26280106 15.4595874,0.00128685536 12.2183287,0 C5.53978033,0 0.10426828,5.43343328 0.101595581,12.1120146 C0.100704681,14.2468416 0.658671964,16.3307554 1.71894179,18.167593 L0,24.4444444 L6.42325603,22.7600828 C8.19297912,23.7250263 10.1855591,24.2335652 12.2134782,24.234423 L12.2184607,24.234423 C18.8963161,24.234423 24.332323,18.8002968 24.3350307,12.1216825 C24.3363156,8.88514232 23.0771771,5.84182838 20.7895112,3.55231472 M12.2184606,22.18862 L12.2143361,22.18862 C10.4072612,22.1879271 8.63479943,21.7026176 7.08859323,20.7853207 L6.72081661,20.5671162 L2.90921701,21.5666729 L3.92662465,17.8515545 L3.68713756,17.4706783 C2.67903487,15.8677185 2.14657373,14.0150097 2.14736388,12.1127735 C2.14957638,6.56180745 6.66739559,2.04577006 12.2224532,2.04577006 C14.9123438,2.04679294 17.4409486,3.09538208 19.3423599,4.99834419 C21.2437712,6.90130632 22.2903146,9.43080197 22.2892932,12.1208906 C22.2869819,17.6722526 17.7692288,22.18862 12.2184606,22.18862 M17.7425348,14.6485055 C17.4397608,14.4970195 15.9512981,13.7647988 15.6737663,13.6637972 C15.3962675,13.5627955 15.1944621,13.5123112 14.9925909,13.8153162 C14.7907855,14.1182881 14.2105787,14.8000245 14.0339166,15.0019948 C13.8573535,15.2039981 13.6807573,15.2292732 13.3779833,15.0777543 C13.0752423,14.9262683 12.09974,14.6066992 10.943319,13.5755651 C10.0433452,12.7730953 9.43568542,11.7818867 9.25908928,11.4789148 C9.08249314,11.1759098 9.24031442,11.0120833 9.39186637,10.8612242 C9.52804203,10.7256095 9.69460733,10.5077349 9.84599434,10.3309738 C9.99734829,10.1542457 10.0477996,10.0280019 10.1487023,9.82603154 C10.2496379,9.62402827 10.1991866,9.44726713 10.1234931,9.29578118 C10.0477996,9.14429517 9.44235068,7.65457862 9.19002804,7.04860176 C8.94430466,6.45843006 8.69468771,6.53828108 8.50885261,6.52904212 C8.33245441,6.52026509 8.13041814,6.51838434 7.92861282,6.51838434 C7.72677449,6.51838434 7.3987914,6.59414384 7.12125957,6.89711574 C6.84376073,7.20012071 6.06168267,7.93234139 6.06168267,9.42202494 C6.06168267,10.9117085 7.14650176,12.3508747 7.29788871,12.5528781 C7.44924272,12.7548813 9.43271578,15.8119548 12.4697604,17.1229304 C13.1920822,17.4347453 13.7560218,17.6209434 14.1956974,17.7605177 C14.9209889,17.9907988 15.5809807,17.9582975 16.1026521,17.8803932 C16.6843107,17.793514 17.8938557,17.1482056 18.1461784,16.441227 C18.398468,15.7342484 18.398468,15.1282716 18.3227745,15.0020278 C18.247114,14.8757839 18.0452757,14.8000245 17.7425348,14.6485055" id="Shape"></path>
            </g>
        </g>
    </g>
</svg>